<?xml version="1.0" standalone="no"?>
<!DOCTYPE svg PUBLIC "-//W3C//DTD SVG 20010904//EN"
 "http://www.w3.org/TR/2001/REC-SVG-20010904/DTD/svg10.dtd">
<svg version="1.0" xmlns="http://www.w3.org/2000/svg"
 width="1536.000000pt" height="1536.000000pt" viewBox="0 0 1536.000000 1536.000000"
 preserveAspectRatio="xMidYMid meet">

<g transform="translate(0.000000,1536.000000) scale(0.100000,-0.100000)"
fill="#000000" stroke="none">
<path d="M0 7680 l0 -7680 7680 0 7680 0 0 7680 0 7680 -7680 0 -7680 0 0
-7680z m6008 4302 c30 -42 90 -131 136 -197 207 -303 246 -360 346 -505 59
-85 212 -308 340 -495 413 -602 471 -687 580 -845 94 -136 408 -594 658 -958
46 -68 88 -122 92 -120 4 2 216 246 471 542 255 297 633 736 839 975 413 481
862 1004 1215 1414 l229 267 373 0 c205 0 373 -2 373 -4 0 -3 -90 -109 -201
-238 -110 -128 -334 -388 -497 -578 -164 -189 -425 -493 -581 -675 -532 -619
-1245 -1449 -1568 -1824 l-321 -375 101 -148 c56 -82 143 -208 193 -281 196
-287 344 -501 654 -952 177 -258 393 -573 479 -698 86 -125 183 -267 217 -315
33 -48 123 -179 200 -292 146 -213 692 -1008 1340 -1951 28 -42 92 -134 141
-205 49 -71 96 -141 106 -156 l17 -28 -1267 0 -1268 0 -71 103 c-39 56 -129
188 -201 292 -72 105 -330 480 -573 835 -244 355 -527 767 -628 915 -102 149
-236 342 -296 431 -61 88 -210 305 -331 482 -121 177 -223 320 -226 319 -10
-4 8 18 -1349 -1562 -316 -368 -639 -744 -718 -835 -79 -91 -299 -348 -490
-572 l-347 -406 -379 -1 c-360 -1 -378 0 -364 17 9 9 103 118 210 242 106 124
369 430 583 679 215 250 422 491 460 536 39 45 180 210 315 367 241 280 684
794 1378 1602 195 226 356 416 359 423 2 6 -33 65 -79 132 -46 66 -132 193
-193 281 -60 88 -139 203 -175 255 -57 82 -138 201 -374 544 -317 463 -832
1214 -880 1283 -34 48 -126 182 -206 299 -80 116 -186 271 -236 343 -82 119
-262 381 -934 1361 -124 182 -230 336 -234 343 -6 9 249 12 1261 12 l1268 0
53 -78z"/>
<path d="M4450 11484 c0 -4 107 -160 239 -348 131 -187 260 -373 287 -411 87
-126 406 -582 516 -738 158 -225 273 -389 623 -892 139 -200 307 -441 395
-565 37 -52 150 -214 252 -360 223 -319 622 -892 918 -1315 341 -489 872
-1249 1131 -1620 131 -187 251 -358 267 -380 16 -22 141 -201 278 -398 137
-197 283 -406 325 -465 l76 -107 572 -3 c390 -1 571 1 571 8 0 6 -114 174
-253 373 -140 199 -386 551 -547 782 -649 929 -877 1255 -957 1370 -47 66
-303 433 -570 815 -267 382 -540 774 -608 870 -189 271 -963 1379 -1208 1730
-121 173 -250 358 -287 410 -58 82 -721 1031 -833 1193 l-40 57 -573 0 c-316
0 -574 -3 -574 -6z"/>
</g>
</svg>
